Patient4_TMGait_0pt2_03_left_14_EMG.mot
version=1
nRows=23
nColumns=33
inDegrees=no
endheader
time	1LAddLong	2LGlutMax	3LGlutMed	4LIliopsoas	5LSemiMemb	6LBicFemLong	7LRecFem	8LVastMed	9LVastLat	10LGasMed	11LTibAnt	12lTibPost	13LPeroneusLong	14LSol	15LExtDigLong	16LFlexDigLong	17RAddLong	18RGlutMax	19RGlutMed	20RIliopsoas	21RSemiMemb	22RBicFemLong	23RRecFem	24RVastMed	25RVastLat	26RGasMed	27RTibAnt	28RTibPost	29RPeroneusLong	30RSol	31RExtDigLong	32RFlexDigLong
28.84	0.000305	-0.11627	-0.042572	0.020142	-0.00061	-0.00412	-0.023956	0.005188	-0.00824	0.027161	0.007477	-0.009918	0.016785	-0.10056	-0.006561	0.015717	0.0354	0.13687	-0.25772	0.046234	0.01236	-0.14908	0.18753	0.7019	0.000305	-0.050201	0.014191	0.075226	0.13947	-0.61752	-0.006409	-0.002899
28.841	-0.002289	-0.072174	-0.031281	0.018311	0.00412	0.02182	-0.001831	0.011444	-0.010681	0.025787	0.010071	-0.021515	0.025787	0.05249	0.007019	-0.000305	0.052643	0.1738	0.013733	-0.062714	0.004578	-0.12848	0.022888	0.2562	0.17777	-0.012665	0.012665	-0.03067	0.1413	-0.45456	0.000153	-0.008392
28.842	0.001831	-0.040436	-0.008545	0.00412	0	0.032196	-0.019531	0.011292	-0.009155	0.016327	0.018616	-0.010834	0.031738	0.10025	0.005646	0.007629	0.070953	0.15121	-0.075226	-0.072021	0.039673	-0.12909	-0.18051	0.2272	0.38422	0.029449	0.007629	-0.03952	0.45776	-0.015259	-0.001984	-0.002441
28.843	0.004425	-0.009918	0.007019	0.016632	0.00412	0.03952	0.004578	0.010986	-0.006561	0.02243	0.015259	-0.019379	0.031433	0.068207	0.008698	0.012817	0.036163	0.15533	-0.21469	0.00412	0.033417	-0.10819	0.059357	0.10559	0.28229	0.030365	0.034637	0.057678	1.0318	0.11231	-0.005188	-0.007935
28.844	0.008392	0.047913	0.021362	0.010376	0.007629	0.020142	0.004425	0.005951	-0.005646	0.024872	-0.019684	-0.017242	0.048828	0.030975	0.00351	0.001221	0.055847	0.16312	0.027008	0.085754	0.001373	-0.05127	0.20279	-0.45029	0.079346	0.026703	0.070648	0.027313	0.63644	0.11292	-0.002441	0
28.845	0.007782	0.085754	0.040741	0.000305	0.023804	-0.007935	0.012207	0.013733	0.003204	0.021667	-0.056915	-0.003662	0.045776	0.044098	-0.000763	-0.006561	0.0737	0.11307	0.003815	-0.072021	-0.012512	-0.001068	0.28061	-1.2222	-0.11643	-0.031891	0.039825	-0.014496	0.62088	0.41657	0.000153	0.005188
28.846	0.012207	0.11795	0.10834	-0.006409	0.010681	0.005035	0.019531	0.011749	0.015564	0.026093	-0.081482	-0.032959	0.037231	0.050201	0.003662	0.001678	0.063324	0.06424	0.31433	-0.1831	0.036774	0.028687	0.10742	-1.4529	-0.20309	-0.06134	0.063171	-0.047607	0.2327	0.466	-0.002441	0.001221
28.847	0.011902	0.16022	0.078583	0.005951	0.008698	-0.007782	0.006409	0.018005	0.011444	0.03479	-0.096741	-0.034637	0.028229	0.072632	0.10605	0.010223	0.096588	0.067902	0.16388	-0.13641	0.067139	0.25223	-0.19333	-0.41687	0.039215	-0.059509	0.063629	0.000305	-0.41824	0.24658	-0.003662	0.007935
28.848	0.016174	0.19241	0.061646	0.010223	0.013885	-0.019531	-0.000916	0.013428	0.030823	0.021667	-0.069122	-0.050049	-0.000916	0.07843	0.1178	0.001068	0.11032	0.066681	-0.21042	0.11017	0.074921	0.3624	-0.09552	0.24628	0.088806	-0.03067	0.050964	0.001526	0.14313	-0.072021	-0.000916	-0.000305
28.849	0.010834	0.23956	0.041962	0.00351	0.020294	-0.006256	-0.010986	0.009003	0.030518	0.013885	0.075836	-0.077057	0.013733	0.076752	0.035095	-0.001678	0.1329	0.069275	-0.48843	0.2269	-0.19409	0.40604	0.21729	0.031586	-0.071106	-0.02243	-0.067139	-0.001221	1.2381	-0.29984	-0.00351	0.000153
28.85	0.006409	0.28458	0.036926	0.001984	0.01709	0.026245	-0.007019	0.010986	0.034332	0	0.16556	-0.11795	0.048523	0.092468	-0.054932	0.005341	0.15411	0.1445	0.50247	0.22766	-0.24017	0.28122	0.39047	-0.15427	-0.18967	0.024567	-0.049896	-0.13138	-0.46616	-0.12665	-0.003052	-0.006409
28.851	0	0.30746	0.066833	0.007782	0.010986	0.034485	-0.006561	0.01297	0.038452	-0.018311	0.010986	-0.13168	0.11902	0.098267	-0.087585	0.005646	0.1004	0.11047	1.2212	0.15152	-0.24231	0.14343	0.15366	-0.16525	-0.18723	0.10895	0.036163	-0.28137	0.13626	0.098877	-0.004272	-0.010834
28.852	0.009003	0.31891	0.11475	0.037231	0.022278	0.016937	-0.016022	0.012207	0.039063	-0.021057	0.030212	-0.13001	0.11581	0.094147	0.013123	0.010529	-0.024414	0.010681	0.9375	0.078583	-0.2832	0.14328	0.025787	-0.35767	-0.005188	0.036621	-0.00824	0.06546	-0.14603	-0.20798	-0.00351	-0.007935
28.853	0.006256	0.36026	0.087585	0.019531	0.020294	-0.018768	0.005798	0.009613	0.045471	0.00946	0.059814	-0.103	0.008545	0.093079	0.097198	-0.003357	-0.11597	-0.041962	0.32105	-0.001678	-0.088196	0.13214	0.096893	-0.36072	0.14969	0.024109	0.033875	0.09903	-1.2424	-0.21744	-0.002289	-0.020599
28.854	0.006104	0.37842	-0.006714	0.024261	0.017853	-0.024567	0.035095	0.007019	0.039673	0.015106	0.078888	-0.087891	-0.00351	0.068817	0.000305	-0.000153	-0.10056	0.029144	0.17593	-0.11444	-0.003357	-0.047302	0.042572	-0.16342	0.336	0.018463	0.14404	0.18982	-2.5339	0.019226	0.001373	-0.018463
28.855	-0.000305	0.43182	0.036316	0.036926	0.00885	-0.040436	0.05661	0.010376	0.049591	0.017395	0.07309	-0.086823	0.014191	-0.002136	-0.15243	0.009003	-0.091248	-0.071716	0.41565	-0.14069	-0.054169	-0.38086	-0.041351	0.15945	0.36957	0.011292	-0.007935	0.076904	-0.41382	0.14862	-0.00473	-0.00946
28.856	0.005951	0.43488	-0.010376	0.031281	0.018463	-0.026245	0.061493	0.007782	0.050659	0.02182	0.067444	-0.052643	0.010834	-0.009155	-0.13596	0.012512	-0.060883	-0.093079	0.024261	-0.054932	-0.079041	-0.41489	-0.058441	0.25436	0.34805	-0.020447	-0.12604	0.067596	1.3278	0.48218	0	-0.010071
28.857	0.006104	0.4744	-0.057831	0.028839	0.003815	-0.019226	0.066071	0.006866	0.049896	0.014954	0.038605	-0.040588	0.007629	0.005188	0.056458	0.01297	-0.027313	-0.093536	-0.001221	0.063324	0.03418	-0.27359	0.017548	0.439	0.59952	-0.020294	-0.17761	0.027008	0.072327	0.26108	-0.000305	-0.014191
28.858	0.002136	0.51178	-0.079651	0.003052	0.013123	-0.025024	0.070496	0.006409	0.045319	0.018158	0.011444	-0.019836	0.010376	0.00061	-0.11337	0.009155	0.030365	-0.093536	0.017853	0.14862	0.21393	-0.23972	0.11719	0.42282	0.43884	-0.014954	-0.095367	-0.021515	-0.041199	0.26901	-0.000763	0.001984
28.859	0.005188	0.52094	-0.058136	0.01236	0.012054	-0.021057	0.046082	0.007935	0.046082	0.010071	0.006409	-0.005493	0.027161	0.009918	0.068665	0.015717	0.075226	-0.11612	0.39017	0.17487	0.059357	-0.17517	0.16739	0.062714	0.19775	0.001831	-0.030212	-0.15015	-0.1683	0.1062	-0.000305	-0.008087
28.86	0.009003	0.5513	-0.069122	0.008392	0.00885	-0.027161	0.034485	0.010376	0.039978	0.004883	-0.036621	0.002136	0.044098	0.00412	-0.038452	0.017395	0.05661	-0.11429	0.29556	0.20065	-0.40924	-0.1004	0.13214	-0.43701	-0.007172	0.046539	-0.088043	-0.27512	0.079956	-0.15503	-0.002136	-0.010071
28.861	0.013428	0.60944	-0.034943	-0.018158	0.008392	-0.010071	0.062561	0.006104	0.037994	0.025482	-0.17716	0.016632	0.025787	0.034485	-0.013123	0.016327	0.038147	0.026703	0.67108	0.051575	-0.53757	-0.002747	0.22537	-0.56473	-0.073853	0.03006	-0.026855	0.21576	1.0071	-0.093994	-0.001221	-0.013885
28.862	0.006409	0.58868	0.005188	-0.031586	0.005798	-0.020447	0.055695	0.00412	0.029144	0.049286	-0.084686	0.029755	-0.03891	0.080261	0.39429	0.019531	0.007477	0.045319	1.5919	-0.019684	-0.24582	0.18677	0.053864	-0.61386	0	0.001984	-0.043335	0.10513	0.45654	-0.05661	-0.002136	-0.011292
